<svg width="108" height="108" viewBox="0 0 108 108" fill="none" xmlns="http://www.w3.org/2000/svg">
<rect width="107.525" height="107.525" rx="28.3748" fill="white"/>
<path d="M57.0076 46.8909C56.6668 46.8909 55.1283 46.8909 52.8926 46.6353C51.9893 46.532 51.6793 45.8686 51.5038 45.3497C50.5965 42.6677 55.2728 38.8158 57.5162 37.6851C59.3765 36.7475 61.644 38.9707 63.6266 39.8304C64.6847 40.2891 64.7522 42.4042 64.5818 44.4668C64.4606 45.9345 63.3788 46.8857 62.6069 47.7454C61.0124 49.5212 52.9391 49.4724 48.3233 48.3598C45.9281 47.7824 45.8244 44.3197 45.1352 42.2519C44.4459 40.1841 43.7592 38.124 42.5562 36.0562C41.2039 33.7317 38.0902 32.2691 35.7616 31.4895C34.5397 31.0804 33.0923 31.7425 31.8041 32.5143C29.399 33.9555 28.4456 36.5544 27.1522 39.0508C25.355 42.5196 26.8863 48.7702 29.5453 53.2414C30.7006 55.1841 32.2198 56.0088 33.8461 56.6955C36.5191 57.8241 40.4652 57.7333 43.7334 57.4777C44.9796 57.3803 45.2978 56.711 45.4733 55.1698C46.3516 47.4596 46.1652 44.3197 46.5937 39.7788C47.2751 32.5588 46.8519 27.2764 47.2804 26.2464C48.4358 23.4692 51.8342 21.7674 55.8692 20.7348C61.801 19.2168 65.0826 21.9327 67.7545 23.2208C70.2801 24.4385 70.7723 27.9424 71.4616 30.3613C71.6115 30.8874 71.8049 31.3914 71.7223 31.9103C71.5472 33.0101 69.5848 33.8077 67.3415 34.9255C65.4127 35.8865 62.1913 36.2137 60.1932 36.9933C58.025 37.8393 66.962 38.6196 70.8498 40.1737C73.6437 41.2905 75.925 43.2664 78.6821 46.705C80.9091 49.4825 81.9555 51.5273 82.051 55.1388C82.1123 57.4572 77.6702 57.0414 68.3173 57.0466C64.6106 57.0486 62.3565 54.6458 60.1132 53.3498C58.8019 52.5924 58.0454 51.1969 57.5265 50.8509C56.1155 49.9103 59.7544 54.1088 61.0477 56.1766C61.6398 57.1233 61.6544 59.7779 61.3988 63.0461C61.1707 65.9627 58.0505 67.192 55.9827 68.142C53.8457 69.1238 51.003 69.6083 48.0781 69.3527C42.7026 68.883 47.0223 55.1621 47.7115 53.0943C47.8845 52.5754 48.0549 52.0642 47.9723 52.0565C46.1724 51.8878 46 55.6577 45.05 57.7255C44.0681 59.8626 42.9021 61.8534 41.6088 64.3497C40.5547 66.3842 40.4858 72.9953 40.9995 77.3452C41.2885 79.792 43.7489 81.9893 45.5559 84.0571C47.2048 85.9439 49.2527 86.9872 52.1776 87.5912C54.389 88.048 58.8663 88.1953 62.1629 87.5964C63.1929 86.9975 64.2307 86.476 65.1756 85.9623C65.6093 85.6189 65.95 85.1078 67.3337 83.5486" stroke="#2D2D2D" stroke-width="6.08634" stroke-linecap="round"/>
</svg>
