<svg width="81" height="70" viewBox="0 0 81 70" fill="none" xmlns="http://www.w3.org/2000/svg">
<path d="M23.6648 36.0567C23.4221 36.4636 22.6057 37.2776 21.7476 38.2594C20.624 39.5453 18.8498 41.362 17.7846 42.3463C16.9782 43.0915 15.8246 43.4899 14.8427 43.9006C13.8879 44.2999 12.8826 44.5539 11.8603 44.8812C10.6136 45.2804 8.47956 45.3728 6.99756 45.0884C5.86084 44.8703 5.19931 43.6616 4.78867 42.6797C4.38933 41.7249 4.29712 40.396 4.09364 38.9238C4.01539 38.3577 4.05196 37.4639 4.17332 37.1268C4.48282 36.2671 6.00834 37.9346 7.11156 38.2214C7.46975 38.3146 7.96472 38.2631 8.09343 38.2227C8.8038 37.9994 6.26331 37.611 5.28144 37.0398C4.22105 36.4229 3.64499 35.3261 3.31771 34.3442C2.99042 33.3624 2.82616 30.7661 3.27358 28.9507C3.56701 27.7601 4.86589 26.7455 6.78182 24.7867C7.79396 23.7519 8.95027 23.6369 9.93213 23.3096C10.914 22.9823 11.8922 22.6562 12.9954 22.3694C13.3536 22.2762 13.8486 22.3277 14.0582 22.1659C15.031 21.415 13.6132 19.1504 13.8976 17.9185C14.1534 16.8105 15.4078 16.2036 16.7133 14.6517C17.5792 13.6224 18.7567 13.0165 19.779 12.4821C20.3758 12.1701 21.7746 12.031 23.4086 11.9096C24.5965 11.8214 24.7239 10.0746 25.6224 8.88923C26.5522 7.66261 27.9061 6.23537 29.0546 5.41408C30.0146 4.7277 31.0147 4.10738 31.9966 3.69673C32.9514 3.29739 33.9566 3.04338 36.9733 3.00048C38.4007 2.98018 39.3502 3.61215 40.5355 3.93944C41.5977 4.23273 42.3754 5.16157 43.6809 6.50995C44.5903 7.44926 45.2365 8.02504 45.6042 8.10839C45.7482 8.14102 45.7292 7.70633 45.8506 7.49917C46.3403 6.66316 47.6856 6.72079 49.1124 6.43395C52.2849 5.79619 53.3243 7.0444 54.3062 7.37169C55.288 7.69898 56.2662 8.18685 57.7752 9.20671C60.3123 10.9215 61.4146 11.2121 62.4369 11.5394C63.6666 11.9331 65.0086 12.1094 66.0739 12.764C67.0793 13.3818 68.0339 14.0707 68.9753 14.7657C69.9166 15.4606 70.3237 16.6841 71.3853 17.8695C72.2271 18.8094 72.6135 19.8712 73.1443 20.8531C73.6793 21.8427 73.8393 23.0583 73.8822 25.261C73.9073 26.5461 73.0254 27.4712 72.4542 28.453C71.8373 29.5134 70.9023 30.4131 70.0038 30.9475C69.5175 31.2368 69.0219 31.4795 68.816 31.6021C68.0047 32.0851 70.7307 30.8299 71.7126 30.3788C72.7273 29.9126 73.6726 29.3589 74.614 28.7031C75.3986 28.1566 75.7173 30.5749 76.1684 31.6806C76.6728 32.9171 77.2716 33.8453 77.3954 35.4781C77.5261 37.2014 77.2765 38.9937 76.6623 40.1791C76.148 41.1718 75.5603 42.1808 75.1093 43.1627C74.626 44.2144 73.8442 45.1227 72.9862 45.9011C72.128 46.6795 71.2308 47.2507 70.2489 47.7815C69.3262 48.2803 68.2889 48.4765 67.307 48.8038C66.1785 49.18 62.2678 49.2953 59.8713 49.0514C58.4494 48.9067 57.5018 48.3981 56.52 47.8673C55.5699 47.3537 54.5599 46.9271 53.5376 46.3559C52.3546 45.6949 51.3728 45.0492 50.4719 44.6373C49.4411 44.1661 48.9212 46.2701 47.9394 46.8008C47.0166 47.2996 45.9793 47.4959 44.1835 47.6197C42.7806 47.7164 41.3212 47.9862 36.4732 48.0291C34.5168 48.0464 33.0691 47.4174 32.0039 47.0901C30.9875 46.7778 30.0439 46.1916 28.655 46.3522C27.548 46.4802 24.0227 46.8437 21.5037 46.3559C20.3109 46.1249 19.502 45.0492 18.601 44.1507C18.2132 43.7639 18.1095 43.1688 17.9452 42.9224C17.4807 42.2257 18.5973 44.3897 18.8413 44.7979C19.348 45.6459 20.718 45.6964 21.9033 46.107C22.428 46.2888 22.9269 46.4343 24.9531 46.5569C33.7003 47.0861 35.1775 47.0889 36.4095 47.3328C40.0789 48.0594 46.705 47.4174 47.6868 47.0497C48.2167 46.8512 48.6687 46.4368 48.8746 46.1916C49.4857 45.4642 46.9599 47.0055 45.9781 47.3328C44.9962 47.6601 44.018 48.148 43.2801 49.0465C43.0921 49.2753 42.954 49.5356 43.1538 49.6606C44.4724 50.4858 45.4792 50.8448 46.2576 51.6624C47.0165 52.4596 48.1759 53.0512 49.5648 53.9093C50.6113 54.5559 51.6082 55.0125 52.59 55.4231C53.571 55.8334 54.5501 56.3216 55.4915 56.9333C56.4631 57.5646 57.0851 58.6065 57.7396 59.5884C58.3704 60.5346 58.4776 62.5193 58.6811 64.407C58.8031 65.5388 58.8036 66.4541 58.9667 66.7005C59.4782 67.4736 59.3749 64.5002 59.9056 63.5183C60.4044 62.5956 60.7625 61.5583 61.1731 60.5764C61.5724 59.6216 61.8265 58.6163 62.3572 57.6345C62.856 56.7118 63.0523 55.6744 63.3391 54.3689C63.4618 53.8107 63.3808 52.909 63.2594 52.3697C63.1381 51.8303 62.8954 51.6685 62.649 51.5447C61.3837 50.9089 59.4631 51.0948 58.4813 50.7675C57.4463 50.4225 56.276 50.1975 55.0907 49.7869C54.566 49.6051 53.0963 49.5405 51.379 49.6214C50.8693 49.6454 51.1179 49.8641 51.3642 50.0284C52.3104 50.6592 53.3243 51.0899 54.3871 51.8254C55.8273 52.8221 56.9184 53.8651 57.9836 54.6864C58.4727 55.0125 58.9654 55.2601 59.4545 55.4636C59.7009 55.5862 59.9436 55.748 60.1937 56.1598" stroke="#2D2D2D" stroke-width="6" stroke-linecap="round"/>
</svg>
